<?xml version="1.0" encoding="UTF-8"?>
<!DOCTYPE svg PUBLIC "-//W3C//DTD SVG 1.1//EN" "http://www.w3.org/Graphics/SVG/1.1/DTD/svg11.dtd">
<!-- Creator: CorelDRAW X7 -->
<svg xmlns="http://www.w3.org/2000/svg" xml:space="preserve" width="13.2292mm" height="13.2292mm" version="1.1" style="shape-rendering:geometricPrecision; text-rendering:geometricPrecision; image-rendering:optimizeQuality; fill-rule:evenodd; clip-rule:evenodd"
viewBox="0 0 1323 1323"
 xmlns:xlink="http://www.w3.org/1999/xlink">
 <defs>
  <style type="text/css">
   <![CDATA[
    .fil0 {fill:#0F4375}
   ]]>
  </style>
 </defs>
 <g id="Слой_x0020_1">
  <metadata id="CorelCorpID_0Corel-Layer"/>
  <path class="fil0" d="M828 786c0,-38 1,-313 1,-316 1,-12 -10,-21 -23,-21 0,0 0,0 0,0 -12,0 -23,9 -23,21 0,2 -1,278 -1,316 0,98 -73,109 -105,109 -97,0 -108,-77 -108,-109 0,-21 0,-95 0,-164 0,-60 0,-117 0,-131 0,-47 26,-73 75,-73 37,0 65,31 65,73l0 222c0,17 -4,44 -25,44 -9,0 -28,0 -28,-44l0 -186c0,-11 -11,-20 -24,-20 -12,0 -23,9 -23,20l0 186c0,77 52,86 75,86 34,0 71,-23 71,-86l0 -222c0,-64 -49,-115 -111,-115 -75,0 -122,44 -122,115 0,14 0,71 0,131 1,69 1,143 1,164 0,72 40,150 154,150 111,0 151,-81 151,-150z"/>
 </g>
</svg>
